<?xml version="1.0" standalone="no"?>
<!DOCTYPE svg PUBLIC "-//W3C//DTD SVG 20010904//EN"
 "http://www.w3.org/TR/2001/REC-SVG-20010904/DTD/svg10.dtd">
<svg version="1.0" xmlns="http://www.w3.org/2000/svg"
 width="1000.000000pt" height="999.000000pt" viewBox="0 0 1000.000000 999.000000"
 preserveAspectRatio="xMidYMid meet">

<g transform="translate(0.000000,999.000000) scale(0.100000,-0.100000)"
fill="#000000" stroke="none">
<path d="M2924 7425 c-89 -95 -156 -241 -127 -281 9 -12 1174 -711 1351 -810
99 -56 129 -67 240 -92 70 -16 132 -27 139 -24 31 11 24 45 -23 115 -85 129
-122 174 -146 179 -13 3 -300 213 -638 468 -338 254 -631 473 -650 486 -56 38
-77 32 -146 -41z m152 -51 l44 -36 -53 -61 c-28 -33 -66 -76 -82 -95 l-31 -35
-42 28 c-23 15 -42 31 -42 34 0 25 139 201 158 201 2 0 24 -16 48 -36z m659
-504 c605 -462 561 -428 552 -436 -6 -6 -278 176 -743 497 -150 103 -307 211
-350 239 -43 28 -81 53 -83 56 -9 9 63 73 73 65 6 -4 254 -194 551 -421z
m-601 284 c26 -20 206 -147 399 -282 574 -403 717 -506 717 -520 0 -9 -21 1
-52 24 -29 21 -127 83 -218 139 -409 253 -965 597 -969 601 -5 5 60 74 70 74
3 0 27 -16 53 -36z m1254 -794 c17 -27 32 -51 32 -53 0 -4 -123 14 -129 19 -4
3 52 84 59 84 3 0 20 -23 38 -50z"/>
<path d="M2688 7393 c-30 -34 -40 -66 -40 -123 0 -60 20 -113 47 -124 24 -9
28 17 11 59 -21 49 -20 105 1 150 20 41 7 67 -19 38z"/>
<path d="M2540 7291 c-25 -48 -1 -141 37 -141 12 0 14 7 8 33 -4 17 -7 53 -7
80 1 51 -18 64 -38 28z"/>
<path d="M1790 7071 c-69 -26 -313 -117 -543 -201 -266 -97 -426 -161 -442
-176 -31 -28 -38 7 76 -374 l78 -265 -16 -82 c-9 -46 -20 -83 -25 -83 -5 0 0
-12 11 -26 12 -15 21 -33 21 -40 0 -20 146 -621 170 -696 21 -67 39 -84 65
-59 6 5 33 14 60 20 84 17 1236 370 1251 382 8 6 14 22 14 35 0 41 -219 775
-244 819 -14 23 -46 59 -71 80 l-47 38 4 237 c2 182 6 241 17 253 18 23 -1 47
-38 47 -39 0 -49 11 -53 55 l-3 40 -45 -3 c-39 -3 -46 0 -55 20 -15 36 -49 32
-185 -21z m160 -40 c0 -10 29 -156 65 -323 36 -166 70 -343 75 -392 l9 -90
-117 -124 c-64 -69 -151 -161 -192 -206 -41 -45 -82 -80 -90 -78 -8 1 -134 15
-280 32 -349 39 -350 39 -350 54 0 11 -225 690 -245 739 -5 12 -2 17 10 17 12
0 789 274 1085 383 26 9 30 8 30 -12z m91 -13 c5 -13 13 -195 8 -190 -7 8 -39
155 -39 177 0 12 27 23 31 13z m83 -142 c-4 -28 -10 -60 -15 -71 -6 -17 -8
-15 -8 11 -1 17 -4 52 -7 77 -6 43 -5 45 15 40 20 -5 21 -10 15 -57z m57 -559
c-1 -12 -15 -9 -19 4 -3 6 1 10 8 8 6 -3 11 -8 11 -12z m88 -214 c22 -71 72
-227 110 -348 38 -121 66 -223 63 -226 -4 -3 -185 -61 -402 -128 -642 -197
-742 -228 -798 -249 -56 -22 -56 -22 -66 23 -7 31 -185 629 -194 654 -4 11 2
13 26 8 28 -6 569 -80 664 -92 49 -6 69 10 328 268 118 117 218 214 222 215 4
1 25 -55 47 -125z m-1259 -205 c0 -5 -7 -8 -15 -8 -17 0 -18 2 -9 25 5 13 8
14 15 3 5 -7 9 -16 9 -20z"/>
<path d="M1480 6668 c-385 -139 -473 -173 -478 -186 -2 -7 5 -12 15 -12 15 0
680 218 746 245 20 8 23 41 4 48 -7 2 -136 -40 -287 -95z"/>
<path d="M1785 6525 c-38 -13 -194 -67 -345 -120 -151 -53 -290 -102 -307
-108 -18 -6 -33 -17 -33 -25 0 -18 -4 -19 330 84 470 146 469 145 457 178 -8
20 -16 19 -102 -9z"/>
<path d="M1530 6181 c-376 -125 -362 -120 -357 -135 7 -19 50 -9 345 79 380
114 374 112 370 138 -2 12 -10 23 -18 24 -8 1 -161 -47 -340 -106z"/>
<path d="M1263 5420 c-36 -22 -40 -32 -19 -49 11 -9 23 -9 51 3 29 12 36 20
33 38 -4 30 -26 33 -65 8z"/>
<path d="M1298 5307 c-55 -30 -70 -49 -49 -61 13 -9 117 33 137 55 18 20 11
39 -14 39 -9 0 -43 -15 -74 -33z"/>
<path d="M7794 6845 c-11 -27 64 -81 364 -264 125 -76 265 -161 311 -189 49
-31 96 -52 113 -52 21 0 50 20 120 85 51 47 95 84 99 83 3 -2 75 -69 159 -150
l152 -147 -37 -76 c-28 -56 -35 -79 -27 -87 6 -6 61 -15 123 -19 61 -5 138
-14 171 -20 52 -10 62 -10 75 4 22 21 12 49 -81 237 -63 129 -74 145 -96 145
-19 0 -32 -11 -55 -51 l-31 -51 -56 51 c-31 28 -106 97 -167 154 -144 133
-145 133 -261 17 -47 -47 -88 -85 -92 -85 -8 0 -293 166 -468 273 -101 62
-285 157 -304 157 -4 0 -9 -7 -12 -15z m1401 -725 c3 -5 2 -10 -4 -10 -5 0
-13 5 -16 10 -3 6 -2 10 4 10 5 0 13 -4 16 -10z"/>
<path d="M7731 6626 c-9 -10 -8 -73 4 -257 40 -644 56 -893 61 -999 6 -139 9
-156 29 -164 16 -6 152 40 172 58 9 8 12 172 14 683 0 370 -2 677 -6 682 -10
17 -260 14 -274 -3z m217 -566 c1 -278 -1 -559 -5 -625 l-8 -119 -42 -12 -42
-12 -5 61 c-4 53 -16 346 -43 1060 l-6 158 74 -3 74 -3 3 -505z"/>
<path d="M8175 6198 c-33 -5 -66 -14 -72 -20 -10 -8 -13 -88 -13 -343 0 -182
3 -380 7 -439 7 -128 11 -132 99 -109 32 8 71 15 86 15 15 0 31 5 36 11 6 7
12 183 14 440 3 415 2 429 -16 443 -22 16 -53 16 -141 2z m101 -205 c-3 -76
-9 -247 -12 -380 -6 -223 -8 -243 -24 -243 -10 0 -31 -3 -48 -6 l-31 -6 -1
380 0 381 32 4 c18 2 46 5 62 5 l28 2 -6 -137z"/>
<path d="M8710 6145 c-7 -8 -9 -153 -8 -426 l3 -414 33 -3 c39 -4 155 33 173
54 9 11 10 21 3 32 -7 11 -8 76 -3 182 12 270 14 574 3 576 -5 1 -51 4 -101 7
-66 3 -96 1 -103 -8z m163 -62 c2 -5 -1 -80 -8 -168 -7 -88 -16 -225 -19 -305
-9 -205 -10 -207 -53 -225 -20 -8 -37 -14 -39 -12 -2 1 1 68 6 147 5 80 10
217 10 305 0 88 3 184 6 213 l7 52 43 0 c23 0 45 -3 47 -7z"/>
<path d="M5360 5959 c-795 -4 -1632 -9 -1860 -11 l-415 -3 -50 -26 c-58 -31
-73 -47 -110 -113 -34 -61 -32 36 -22 -1366 8 -1023 11 -1137 36 -1202 15 -39
69 -97 115 -121 39 -20 60 -22 356 -28 173 -4 573 -7 888 -8 448 -1 574 -4
577 -13 2 -7 5 -161 7 -341 l3 -328 -607 3 c-563 3 -609 2 -624 -14 -14 -14
-15 -22 -6 -42 10 -23 16 -24 134 -30 68 -3 681 -10 1363 -16 682 -5 1332 -12
1445 -15 177 -4 209 -3 229 11 16 12 21 24 19 47 l-3 32 -110 6 c-60 4 -338 7
-616 8 l-507 1 -6 107 c-3 60 -9 214 -12 343 l-6 235 833 0 834 0 62 28 c75
35 104 64 140 142 l28 60 5 1125 c3 619 2 1168 -1 1221 -11 152 -60 242 -158
288 -55 25 -60 26 -286 27 -126 1 -880 -2 -1675 -7z m1937 -125 c15 -11 39
-42 53 -70 l25 -49 0 -1185 c0 -1268 1 -1233 -49 -1288 -11 -13 -39 -34 -61
-45 -39 -21 -51 -22 -470 -25 -236 -1 -1154 1 -2040 5 l-1610 8 -47 23 c-36
18 -52 34 -70 70 l-22 47 -9 985 c-10 1230 -8 1423 16 1467 39 72 -32 67 1097
73 558 4 1497 6 2087 6 1064 -1 1072 -1 1100 -22z m-1805 -3098 c-1 -187 -4
-342 -6 -344 -2 -2 -116 0 -253 4 l-250 7 -12 266 c-6 146 -14 299 -17 339
l-6 72 273 -2 274 -3 -3 -339z"/>
<path d="M3616 5624 c-21 -21 -20 -57 2 -77 36 -32 85 -10 85 38 0 48 -55 72
-87 39z"/>
<path d="M3245 5605 c-14 -13 -25 -29 -25 -35 0 -14 46 -60 60 -60 16 0 60 47
60 65 0 20 -35 55 -55 55 -9 0 -27 -11 -40 -25z"/>
<path d="M3435 5610 c-41 -45 18 -110 70 -76 27 18 34 63 13 84 -18 18 -63 14
-83 -8z"/>
<path d="M4450 5620 c-230 -9 -281 -22 -233 -61 13 -11 77 -14 332 -12 174 2
326 5 338 8 30 7 41 45 17 62 -20 14 -115 15 -454 3z"/>
<path d="M5024 5615 c-10 -25 4 -45 30 -45 25 0 39 20 30 45 -4 8 -17 15 -30
15 -14 0 -27 -7 -30 -15z"/>
<path d="M6680 5402 c-256 -1 -1159 -6 -2007 -10 -1198 -5 -1545 -10 -1554
-19 -10 -10 -10 -221 0 -1010 13 -980 15 -1057 26 -1095 7 -21 38 -24 53 -5 8
9 40 10 134 5 309 -18 1154 -25 2441 -20 l1398 5 15 -22 c19 -26 50 -27 64 -1
7 14 10 342 8 1074 l-3 1054 -28 26 c-18 17 -37 25 -55 24 -15 -2 -236 -4
-492 -6z m526 -75 c1 -1 -1 -193 -6 -427 -5 -234 -12 -680 -16 -991 l-7 -566
-306 -7 c-1225 -25 -3432 -32 -3617 -10 l-51 6 -7 282 c-3 154 -11 414 -16
576 -5 162 -14 453 -20 645 -6 193 -13 384 -16 425 l-6 75 2033 -3 c1118 -1
2034 -3 2035 -5z"/>
<path d="M3494 5155 c-19 -15 -19 -15 3 -33 22 -19 118 -28 524 -48 133 -7
169 0 169 35 0 40 -24 46 -239 53 -356 11 -435 10 -457 -7z"/>
<path d="M3433 4848 c-31 -40 -12 -88 36 -88 34 0 51 17 51 50 0 14 -5 31 -12
38 -16 16 -63 15 -75 0z"/>
<path d="M3808 4844 c-35 -7 -39 -41 -5 -48 56 -12 349 -17 1689 -27 1170 -9
1441 -9 1453 1 24 20 14 53 -19 61 -15 4 -238 8 -495 8 -256 1 -945 3 -1531 5
-586 3 -1077 2 -1092 0z"/>
<path d="M3436 4497 c-38 -28 -13 -97 34 -97 22 0 50 32 50 57 0 23 -29 53
-51 53 -9 0 -23 -6 -33 -13z"/>
<path d="M3793 4483 c-24 -9 -14 -40 15 -47 15 -3 724 -12 1577 -20 1142 -11
1553 -12 1563 -4 7 6 12 23 10 37 l-3 26 -470 6 c-577 8 -2675 9 -2692 2z"/>
<path d="M3426 4155 c-19 -20 -21 -45 -3 -67 22 -27 45 -28 74 -3 27 23 27 25
13 52 -18 33 -60 42 -84 18z"/>
<path d="M3810 4151 c-38 -7 -52 -34 -23 -46 24 -10 829 -22 2098 -30 947 -7
1052 -6 1064 8 7 9 10 25 6 35 -5 19 -19 20 -208 26 -294 8 -2896 15 -2937 7z"/>
<path d="M3432 3804 c-27 -18 -29 -55 -4 -77 26 -23 58 -21 76 5 21 30 20 44
-4 68 -24 24 -38 25 -68 4z"/>
<path d="M3785 3787 c-16 -13 -18 -18 -7 -29 10 -10 78 -15 265 -20 353 -10
2873 -29 2891 -22 8 3 18 15 22 26 16 50 91 48 -1586 54 -1404 6 -1567 5
-1585 -9z"/>
<path d="M9013 5879 c-10 -10 -13 -71 -13 -235 0 -165 3 -224 13 -232 19 -15
168 -8 177 9 4 8 11 106 15 219 7 193 6 206 -11 222 -25 22 -164 35 -181 17z
m115 -65 c23 -6 23 -8 17 -118 -3 -61 -8 -135 -11 -163 -5 -51 -7 -53 -35 -53
l-29 0 0 170 c0 185 -2 180 58 164z"/>
<path d="M8425 5801 c-3 -5 -8 -106 -12 -225 -5 -160 -3 -219 6 -230 9 -10 33
-13 93 -12 70 2 82 4 88 21 4 11 10 113 14 227 7 200 7 207 -13 217 -24 13
-168 15 -176 2z m131 -41 c19 0 20 -3 13 -62 -4 -35 -13 -116 -20 -180 l-11
-118 -40 0 c-32 0 -39 3 -34 15 3 9 8 77 11 153 8 191 11 205 38 198 12 -3 31
-6 43 -6z"/>
<path d="M7720 5103 c-22 -8 -39 -33 -33 -49 7 -20 43 -17 72 5 41 31 13 63
-39 44z"/>
<path d="M8137 5045 c-37 -6 -73 -17 -79 -23 -8 -8 -6 -30 10 -84 22 -75 17
-104 -13 -74 -9 9 -28 17 -43 17 -15 1 -40 3 -56 5 -24 2 -40 -8 -97 -63 -38
-37 -69 -72 -69 -80 0 -7 15 -19 33 -26 58 -25 68 -45 59 -117 -6 -39 -15 -68
-26 -75 -24 -18 -23 -105 3 -112 14 -4 20 -18 25 -65 11 -107 9 -124 -18 -136
-28 -13 -42 -62 -31 -110 4 -22 15 -33 43 -44 l37 -14 16 -124 c10 -78 13
-129 7 -137 -5 -6 -8 -38 -6 -70 3 -52 5 -58 26 -61 13 -2 29 -16 39 -35 8
-18 24 -43 34 -56 19 -23 19 -24 -11 -76 -17 -29 -30 -59 -30 -67 0 -26 33
-46 111 -66 l76 -19 54 27 54 28 5 -21 c5 -17 15 -23 44 -25 52 -4 177 16 196
32 8 7 23 16 33 19 9 4 16 10 16 14 -1 4 1 16 6 26 4 10 5 46 3 80 -6 78 24
154 46 118 10 -15 94 -23 117 -11 32 18 58 88 68 187 9 88 9 88 -18 113 -15
14 -48 36 -74 50 -38 20 -47 29 -43 45 3 11 6 28 6 37 0 15 13 18 93 20 l92 3
-1 65 c0 90 -8 183 -17 197 -13 21 -100 26 -161 8 -32 -9 -58 -15 -60 -13 -1
1 -10 49 -19 106 l-17 104 55 50 c30 27 55 59 55 69 0 23 -49 150 -65 167 -6
7 -39 18 -73 24 -58 11 -64 10 -91 -10 l-29 -21 -27 35 c-25 33 -27 39 -16 74
6 20 11 42 11 48 0 6 -32 27 -71 46 -78 39 -101 41 -212 21z m103 -122 l0 -76
39 -34 c22 -18 48 -51 57 -73 24 -53 47 -52 119 7 45 36 59 43 66 32 5 -8 20
-33 34 -56 l25 -41 -57 -33 c-79 -44 -93 -58 -93 -91 0 -44 61 -251 80 -271
19 -21 65 -24 132 -10 54 12 58 8 58 -62 l0 -43 -82 5 c-79 5 -84 4 -106 -20
-23 -24 -23 -27 -15 -157 l8 -133 85 -24 c47 -14 86 -26 88 -27 5 -5 -41 -116
-48 -116 -4 0 -19 11 -33 26 -18 18 -37 26 -68 27 -50 2 -58 -8 -89 -121 -14
-52 -16 -70 -7 -81 12 -14 38 -133 31 -140 -3 -3 -31 -7 -63 -9 l-59 -4 2 77
c1 63 -2 79 -16 88 -13 9 -21 7 -35 -5 -10 -9 -36 -20 -58 -23 -64 -12 -72
-19 -78 -76 -4 -28 -8 -53 -9 -55 -4 -4 -78 13 -84 18 -2 3 8 35 23 72 22 54
25 71 15 84 -6 9 -26 43 -42 75 -27 52 -34 58 -58 55 -21 -2 -28 2 -30 18 -2
16 5 25 27 34 19 8 31 20 31 31 0 11 -4 19 -8 19 -4 0 -16 63 -27 139 -20 150
-20 150 -82 151 -19 0 -23 5 -23 33 0 29 5 35 35 46 40 14 41 16 22 171 l-12
95 -33 3 c-39 4 -38 19 4 42 26 15 30 24 35 76 4 32 9 70 12 84 5 21 -1 31
-38 60 -24 19 -44 40 -44 45 0 6 11 24 25 40 l25 30 23 -26 c35 -41 61 -45
104 -16 20 13 50 32 65 41 25 15 28 22 23 49 -3 18 -8 51 -12 74 l-6 42 43 4
c24 2 52 4 62 5 15 2 17 -8 17 -75z"/>
<path d="M8047 4679 c-20 -11 -49 -38 -65 -61 -41 -63 -41 -142 3 -448 20
-140 43 -282 52 -314 42 -152 202 -213 291 -111 39 44 48 100 33 213 -6 48
-22 193 -36 322 -14 129 -28 249 -31 265 -25 122 -145 188 -247 134z m185
-133 c4 -5 9 -38 13 -71 3 -33 17 -172 30 -310 32 -317 32 -346 2 -380 l-23
-27 -27 153 c-33 180 -73 458 -83 564 -7 72 -6 75 17 84 26 10 60 4 71 -13z
m-215 -158 c-3 -7 -5 -2 -5 12 0 14 2 19 5 13 2 -7 2 -19 0 -25z m10 -75 c-3
-10 -5 -2 -5 17 0 19 2 27 5 18 2 -10 2 -26 0 -35z m10 -80 c-3 -10 -5 -2 -5
17 0 19 2 27 5 18 2 -10 2 -26 0 -35z m10 -80 c-3 -10 -5 -2 -5 17 0 19 2 27
5 18 2 -10 2 -26 0 -35z"/>
<path d="M7770 4993 c-31 -11 -60 -47 -60 -74 0 -43 28 -45 65 -4 18 19 40 35
49 35 21 0 21 36 0 44 -18 7 -33 7 -54 -1z"/>
<path d="M9083 4693 c-4 -10 0 -21 11 -27 40 -24 47 -33 60 -71 17 -48 41 -57
57 -21 9 19 9 32 -1 56 -26 63 -111 105 -127 63z"/>
<path d="M8907 4593 c-16 -15 -5 -34 33 -58 48 -31 67 -59 83 -122 11 -44 14
-48 42 -48 28 0 30 3 33 42 5 64 -45 145 -110 179 -28 15 -70 19 -81 7z"/>
<path d="M2245 4449 c-628 -72 -1260 -151 -1277 -160 -10 -5 -18 -12 -18 -15
0 -16 122 -848 131 -896 6 -31 17 -59 23 -61 16 -6 186 6 766 53 791 65 735
58 746 93 4 12 13 27 20 35 18 17 18 -6 -12 352 -35 420 -58 601 -81 617 -20
16 7 17 -298 -18z m288 -251 c4 -112 10 -243 14 -293 l6 -89 -88 77 c-48 42
-94 77 -101 77 -7 0 -14 10 -16 23 -2 15 -11 23 -28 25 -19 2 -52 -21 -145
-103 -66 -57 -122 -105 -125 -105 -3 0 -66 48 -140 106 -155 122 -176 134
-224 134 -27 0 -46 -9 -77 -37 -33 -30 -260 -326 -416 -542 -30 -41 -32 -42
-37 -20 -5 22 -61 339 -117 657 -12 67 -20 125 -18 127 4 4 142 19 899 100
234 25 454 49 490 54 36 5 77 9 91 10 l26 1 6 -202z m-644 -365 c102 -80 191
-150 198 -155 18 -14 51 0 59 24 4 14 -1 27 -14 40 l-20 21 105 86 104 87 107
-108 c58 -59 111 -108 117 -108 8 0 14 -33 19 -92 7 -102 4 -108 -54 -108 -19
0 -136 -11 -260 -25 -124 -13 -396 -43 -605 -65 -209 -22 -398 -43 -419 -47
l-40 -6 20 25 c10 14 89 113 175 219 85 107 177 223 204 259 52 71 82 99 104
100 7 0 97 -66 200 -147z"/>
<path d="M1175 4133 c-34 -52 -33 -96 4 -134 33 -33 67 -37 111 -14 35 18 50
43 50 85 0 42 -15 67 -50 85 -51 27 -86 20 -115 -22z m99 -42 c14 -15 15 -24
7 -39 -22 -42 -81 -35 -81 8 0 51 41 68 74 31z"/>
<path d="M7871 3421 c-26 -26 -35 -74 -21 -114 18 -58 77 -96 114 -75 27 15
18 45 -20 67 -37 22 -37 22 -30 75 7 61 -10 80 -43 47z"/>
<path d="M7751 3321 c-6 -11 -11 -40 -11 -65 0 -54 39 -109 74 -104 30 4 32
35 5 64 -17 19 -24 38 -24 72 -1 52 -25 70 -44 33z"/>
</g>
</svg>
